<?xml version="1.0" encoding="UTF-8" standalone="no"?>
<!-- Created with Inkscape (http://www.inkscape.org/) -->

<svg
   width="72.037712mm"
   height="72.037727mm"
   viewBox="0 0 72.037713 72.037728"
   version="1.1"
   id="svg1"
   xml:space="preserve"
   xmlns="http://www.w3.org/2000/svg"
   xmlns:svg="http://www.w3.org/2000/svg"><defs
     id="defs1" /><g
     id="g1"
     transform="matrix(0.26458333,0,0,0.26458334,152.55451,-203.80446)"><g
       id="g3"
       transform="matrix(1.3333334,0,0,1.3333333,-732.28984,331.95024)"><path
         id="rect158"
         style="fill:#0d4783;stroke:#0d4783;stroke-width:1.31811;stroke-linejoin:round"
         d="m 131.61168,329.40976 h 174.53681 c 7.85197,0 14.17323,6.32125 14.17323,14.17322 v 174.53683 c 0,7.85197 -6.32126,14.17323 -14.17323,14.17323 H 131.61168 c -7.85197,0 -14.17323,-6.32126 -14.17323,-14.17323 V 343.58298 c 0,-7.85197 6.32126,-14.17322 14.17323,-14.17322 z" /><g
         fill="#0d4783"
         fill-opacity="1"
         id="g87"
         transform="matrix(0.9352469,0,0,0.9352469,35.849594,426.06669)"
         style="fill:#f9f9f9;fill-opacity:1"><g
           transform="translate(99.73989,61.56968)"
           id="g86"
           style="fill:#f9f9f9;fill-opacity:1"><g
             id="g10"
             style="fill:#f9f9f9;fill-opacity:1"><path
               d="m 14.4375,0 -0.01563,-8.421875 -4.125,6.9375 H 8.828125 L 4.71875,-8.25 V 0 H 1.671875 v -14.046875 h 2.6875 l 5.25,8.734375 5.171875,-8.734375 h 2.671875 L 17.5,0 Z m 0,0"
               id="path9"
               style="fill:#f9f9f9;fill-opacity:1" /></g></g></g><g
         fill="#0d4783"
         fill-opacity="1"
         id="g90"
         transform="matrix(0.9352469,0,0,0.9352469,35.849594,426.06669)"
         style="fill:#f9f9f9;fill-opacity:1"><g
           transform="translate(118.90198,61.56968)"
           id="g89"
           style="fill:#f9f9f9;fill-opacity:1"><g
             id="g88"
             style="fill:#f9f9f9;fill-opacity:1"><path
               d="m 12.015625,-5.359375 c 0,0.042969 -0.02344,0.324219 -0.0625,0.84375 h -8.15625 c 0.144531,0.667969 0.488281,1.199219 1.03125,1.59375 0.550781,0.386719 1.234375,0.578125 2.046875,0.578125 0.5625,0 1.0625,-0.082031 1.5,-0.25 0.4375,-0.164062 0.84375,-0.429688 1.21875,-0.796875 l 1.65625,1.8125 C 10.238281,-0.421875 8.753906,0.15625 6.796875,0.15625 5.578125,0.15625 4.5,-0.078125 3.5625,-0.546875 2.632812,-1.023438 1.914062,-1.6875 1.40625,-2.53125 0.894531,-3.375 0.640625,-4.328125 0.640625,-5.390625 c 0,-1.0625 0.25,-2.015625 0.75,-2.859375 0.5,-0.851562 1.1875,-1.515625 2.0625,-1.984375 0.882813,-0.476563 1.867187,-0.71875 2.953125,-0.71875 1.050781,0 2.003906,0.230469 2.859375,0.6875 0.851563,0.449219 1.523437,1.101563 2.015625,1.953125 0.488281,0.84375 0.734375,1.828125 0.734375,2.953125 z M 6.421875,-8.59375 c -0.710937,0 -1.308594,0.203125 -1.796875,0.609375 -0.480469,0.398437 -0.773438,0.945313 -0.875,1.640625 h 5.3125 c -0.105469,-0.675781 -0.398438,-1.21875 -0.875,-1.625 -0.480469,-0.414062 -1.070312,-0.625 -1.765625,-0.625 z m 0,0"
               id="path87"
               style="fill:#f9f9f9;fill-opacity:1" /></g></g></g><g
         fill="#0d4783"
         fill-opacity="1"
         id="g93"
         transform="matrix(0.9352469,0,0,0.9352469,35.849594,426.06669)"
         style="fill:#f9f9f9;fill-opacity:1"><g
           transform="translate(131.56301,61.56968)"
           id="g92"
           style="fill:#f9f9f9;fill-opacity:1"><g
             id="g91"
             style="fill:#f9f9f9;fill-opacity:1"><path
               d="m 8.40625,-0.515625 c -0.3125,0.21875 -0.695312,0.386719 -1.140625,0.5 C 6.816406,0.0976562 6.347656,0.15625 5.859375,0.15625 4.578125,0.15625 3.582031,-0.171875 2.875,-0.828125 2.175781,-1.484375 1.828125,-2.445312 1.828125,-3.71875 V -8.140625 H 0.15625 v -2.40625 H 1.828125 V -13.1875 h 3.125 v 2.640625 h 2.6875 v 2.40625 h -2.6875 V -3.75 c 0,0.460938 0.113281,0.8125 0.34375,1.0625 0.238281,0.242188 0.570313,0.359375 1,0.359375 0.5,0 0.921875,-0.132813 1.265625,-0.40625 z m 0,0"
               id="path90"
               style="fill:#f9f9f9;fill-opacity:1" /></g></g></g><g
         fill="#0d4783"
         fill-opacity="1"
         id="g96"
         transform="matrix(0.9352469,0,0,0.9352469,35.849594,426.06669)"
         style="fill:#f9f9f9;fill-opacity:1"><g
           transform="translate(140.29129,61.56968)"
           id="g95"
           style="fill:#f9f9f9;fill-opacity:1"><g
             id="g94"
             style="fill:#f9f9f9;fill-opacity:1"><path
               d="m 5.796875,-10.953125 c 1.675781,0 2.960937,0.402344 3.859375,1.203125 C 10.550781,-8.957031 11,-7.757812 11,-6.15625 V 0 H 8.0625 v -1.34375 c -0.585938,1 -1.679688,1.5 -3.28125,1.5 -0.835938,0 -1.558594,-0.140625 -2.171875,-0.421875 -0.605469,-0.28125 -1.070313,-0.664063 -1.390625,-1.15625 -0.3125,-0.5 -0.46875,-1.0625 -0.46875,-1.6875 0,-1 0.375,-1.785156 1.125,-2.359375 0.757812,-0.582031 1.925781,-0.875 3.5,-0.875 h 2.484375 c 0,-0.675781 -0.210937,-1.195312 -0.625,-1.5625 -0.40625,-0.375 -1.027344,-0.5625 -1.859375,-0.5625 -0.574219,0 -1.140625,0.09375 -1.703125,0.28125 -0.554687,0.179688 -1.023437,0.417969 -1.40625,0.71875 l -1.125,-2.1875 c 0.59375,-0.40625 1.300781,-0.722656 2.125,-0.953125 0.820313,-0.226563 1.664063,-0.34375 2.53125,-0.34375 z m -0.234375,9 c 0.53125,0 1.003906,-0.117187 1.421875,-0.359375 0.414063,-0.25 0.707031,-0.613281 0.875,-1.09375 V -4.515625 H 5.71875 c -1.28125,0 -1.921875,0.421875 -1.921875,1.265625 0,0.40625 0.15625,0.726562 0.46875,0.953125 0.3125,0.230469 0.742187,0.34375 1.296875,0.34375 z m 0,0"
               id="path93"
               style="fill:#f9f9f9;fill-opacity:1" /></g></g></g><g
         fill="#0d4783"
         fill-opacity="1"
         id="g99"
         transform="matrix(0.9352469,0,0,0.9352469,35.849594,426.06669)"
         style="fill:#f9f9f9;fill-opacity:1"><g
           transform="translate(152.6714,61.56968)"
           id="g98"
           style="fill:#f9f9f9;fill-opacity:1"><g
             id="g97"
             style="fill:#f9f9f9;fill-opacity:1"><path
               d="M 1.4375,-14.890625 H 4.578125 V 0 H 1.4375 Z m 0,0"
               id="path96"
               style="fill:#f9f9f9;fill-opacity:1" /></g></g></g><g
         fill="#0d4783"
         fill-opacity="1"
         id="g102"
         transform="matrix(0.9352469,0,0,0.9352469,35.849594,426.06669)"
         style="fill:#f9f9f9;fill-opacity:1"><g
           transform="translate(158.71097,61.56968)"
           id="g101"
           style="fill:#f9f9f9;fill-opacity:1"><g
             id="g100"
             style="fill:#f9f9f9;fill-opacity:1"><path
               d="M 1.4375,-14.890625 H 4.578125 V 0 H 1.4375 Z m 0,0"
               id="path99"
               style="fill:#f9f9f9;fill-opacity:1" /></g></g></g><g
         fill="#0d4783"
         fill-opacity="1"
         id="g105"
         transform="matrix(0.9352469,0,0,0.9352469,35.849594,426.06669)"
         style="fill:#f9f9f9;fill-opacity:1"><g
           transform="translate(164.75054,61.56968)"
           id="g104"
           style="fill:#f9f9f9;fill-opacity:1"><g
             id="g103"
             style="fill:#f9f9f9;fill-opacity:1"><path
               d="m 7.828125,-10.953125 c 1,0 1.910156,0.234375 2.734375,0.703125 0.820312,0.460938 1.46875,1.105469 1.9375,1.9375 0.46875,0.835938 0.703125,1.808594 0.703125,2.921875 0,1.105469 -0.234375,2.078125 -0.703125,2.921875 -0.46875,0.835938 -1.117188,1.480469 -1.9375,1.9375 C 9.738281,-0.0703125 8.828125,0.15625 7.828125,0.15625 6.335938,0.15625 5.207031,-0.3125 4.4375,-1.25 V 0 h -3 v -14.890625 h 3.140625 v 5.234375 c 0.789063,-0.863281 1.875,-1.296875 3.25,-1.296875 z M 7.28125,-2.40625 c 0.800781,0 1.457031,-0.269531 1.96875,-0.8125 0.519531,-0.539062 0.78125,-1.265625 0.78125,-2.171875 0,-0.914063 -0.261719,-1.644531 -0.78125,-2.1875 -0.511719,-0.539063 -1.167969,-0.8125 -1.96875,-0.8125 -0.804688,0 -1.464844,0.273437 -1.984375,0.8125 -0.511719,0.542969 -0.765625,1.273437 -0.765625,2.1875 0,0.90625 0.253906,1.632813 0.765625,2.171875 0.519531,0.542969 1.179687,0.8125 1.984375,0.8125 z m 0,0"
               id="path102"
               style="fill:#f9f9f9;fill-opacity:1" /></g></g></g><g
         fill="#0d4783"
         fill-opacity="1"
         id="g108"
         transform="matrix(0.9352469,0,0,0.9352469,35.849594,426.06669)"
         style="fill:#f9f9f9;fill-opacity:1"><g
           transform="translate(178.5954,61.56968)"
           id="g107"
           style="fill:#f9f9f9;fill-opacity:1"><g
             id="g106"
             style="fill:#f9f9f9;fill-opacity:1"><path
               d="m 5.796875,-10.953125 c 1.675781,0 2.960937,0.402344 3.859375,1.203125 C 10.550781,-8.957031 11,-7.757812 11,-6.15625 V 0 H 8.0625 v -1.34375 c -0.585938,1 -1.679688,1.5 -3.28125,1.5 -0.835938,0 -1.558594,-0.140625 -2.171875,-0.421875 -0.605469,-0.28125 -1.070313,-0.664063 -1.390625,-1.15625 -0.3125,-0.5 -0.46875,-1.0625 -0.46875,-1.6875 0,-1 0.375,-1.785156 1.125,-2.359375 0.757812,-0.582031 1.925781,-0.875 3.5,-0.875 h 2.484375 c 0,-0.675781 -0.210937,-1.195312 -0.625,-1.5625 -0.40625,-0.375 -1.027344,-0.5625 -1.859375,-0.5625 -0.574219,0 -1.140625,0.09375 -1.703125,0.28125 -0.554687,0.179688 -1.023437,0.417969 -1.40625,0.71875 l -1.125,-2.1875 c 0.59375,-0.40625 1.300781,-0.722656 2.125,-0.953125 0.820313,-0.226563 1.664063,-0.34375 2.53125,-0.34375 z m -0.234375,9 c 0.53125,0 1.003906,-0.117187 1.421875,-0.359375 0.414063,-0.25 0.707031,-0.613281 0.875,-1.09375 V -4.515625 H 5.71875 c -1.28125,0 -1.921875,0.421875 -1.921875,1.265625 0,0.40625 0.15625,0.726562 0.46875,0.953125 0.3125,0.230469 0.742187,0.34375 1.296875,0.34375 z m 0,0"
               id="path105"
               style="fill:#f9f9f9;fill-opacity:1" /></g></g></g><g
         fill="#0d4783"
         fill-opacity="1"
         id="g111"
         transform="matrix(0.9352469,0,0,0.9352469,35.849594,426.06669)"
         style="fill:#f9f9f9;fill-opacity:1"><g
           transform="translate(190.97551,61.56968)"
           id="g110"
           style="fill:#f9f9f9;fill-opacity:1"><g
             id="g109"
             style="fill:#f9f9f9;fill-opacity:1"><path
               d="M 12.3125,-10.796875 V 0 H 9.34375 V -1.28125 C 8.9375,-0.8125 8.441406,-0.453125 7.859375,-0.203125 7.285156,0.0351562 6.664062,0.15625 6,0.15625 4.582031,0.15625 3.457031,-0.25 2.625,-1.0625 1.800781,-1.875 1.390625,-3.082031 1.390625,-4.6875 v -6.109375 h 3.125 v 5.640625 c 0,1.742188 0.726563,2.609375 2.1875,2.609375 0.75,0 1.347656,-0.242187 1.796875,-0.734375 0.457031,-0.488281 0.6875,-1.210938 0.6875,-2.171875 v -5.34375 z m 0,0"
               id="path108"
               style="fill:#f9f9f9;fill-opacity:1" /></g></g></g><g
         fill="#0d4783"
         fill-opacity="1"
         id="g114"
         transform="matrix(0.9352469,0,0,0.9352469,35.849594,426.06669)"
         style="fill:#f9f9f9;fill-opacity:1"><g
           transform="translate(204.76018,61.56968)"
           id="g113"
           style="fill:#f9f9f9;fill-opacity:1"><g
             id="g112"
             style="fill:#f9f9f9;fill-opacity:1"><path
               d="m 15.265625,-10.953125 c 1.351563,0 2.425781,0.402344 3.21875,1.203125 0.800781,0.792969 1.203125,1.984375 1.203125,3.578125 V 0 h -3.140625 v -5.703125 c 0,-0.851563 -0.179687,-1.488281 -0.53125,-1.90625 C 15.660156,-8.035156 15.15625,-8.25 14.5,-8.25 c -0.730469,0 -1.308594,0.242188 -1.734375,0.71875 C 12.335938,-7.0625 12.125,-6.359375 12.125,-5.421875 V 0 H 8.984375 V -5.703125 C 8.984375,-7.398438 8.300781,-8.25 6.9375,-8.25 6.21875,-8.25 5.644531,-8.007812 5.21875,-7.53125 4.789062,-7.0625 4.578125,-6.359375 4.578125,-5.421875 V 0 H 1.4375 v -10.796875 h 3 v 1.25 c 0.394531,-0.457031 0.882812,-0.804687 1.46875,-1.046875 0.582031,-0.238281 1.222656,-0.359375 1.921875,-0.359375 0.757813,0 1.445313,0.152344 2.0625,0.453125 0.613281,0.304688 1.109375,0.742188 1.484375,1.3125 0.4375,-0.5625 0.992188,-0.992188 1.671875,-1.296875 0.675781,-0.3125 1.414063,-0.46875 2.21875,-0.46875 z m 0,0"
               id="path111"
               style="fill:#f9f9f9;fill-opacity:1" /></g></g></g><g
         fill="#0d4783"
         fill-opacity="1"
         id="g117"
         transform="matrix(0.9352469,0,0,0.9352469,35.849594,426.06669)"
         style="fill:#f9f9f9;fill-opacity:1"><g
           transform="translate(225.80838,61.56968)"
           id="g116"
           style="fill:#f9f9f9;fill-opacity:1"><g
             id="g115"
             style="fill:#f9f9f9;fill-opacity:1"><path
               d="m 12.015625,-5.359375 c 0,0.042969 -0.02344,0.324219 -0.0625,0.84375 h -8.15625 c 0.144531,0.667969 0.488281,1.199219 1.03125,1.59375 0.550781,0.386719 1.234375,0.578125 2.046875,0.578125 0.5625,0 1.0625,-0.082031 1.5,-0.25 0.4375,-0.164062 0.84375,-0.429688 1.21875,-0.796875 l 1.65625,1.8125 C 10.238281,-0.421875 8.753906,0.15625 6.796875,0.15625 5.578125,0.15625 4.5,-0.078125 3.5625,-0.546875 2.632812,-1.023438 1.914062,-1.6875 1.40625,-2.53125 0.894531,-3.375 0.640625,-4.328125 0.640625,-5.390625 c 0,-1.0625 0.25,-2.015625 0.75,-2.859375 0.5,-0.851562 1.1875,-1.515625 2.0625,-1.984375 0.882813,-0.476563 1.867187,-0.71875 2.953125,-0.71875 1.050781,0 2.003906,0.230469 2.859375,0.6875 0.851563,0.449219 1.523437,1.101563 2.015625,1.953125 0.488281,0.84375 0.734375,1.828125 0.734375,2.953125 z M 6.421875,-8.59375 c -0.710937,0 -1.308594,0.203125 -1.796875,0.609375 -0.480469,0.398437 -0.773438,0.945313 -0.875,1.640625 h 5.3125 c -0.105469,-0.675781 -0.398438,-1.21875 -0.875,-1.625 -0.480469,-0.414062 -1.070312,-0.625 -1.765625,-0.625 z m 0,0"
               id="path114"
               style="fill:#f9f9f9;fill-opacity:1" /></g></g></g><g
         fill="#0d4783"
         fill-opacity="1"
         id="g120"
         transform="matrix(0.9352469,0,0,0.9352469,35.849594,426.06669)"
         style="fill:#f9f9f9;fill-opacity:1"><g
           transform="translate(238.46941,61.56968)"
           id="g119"
           style="fill:#f9f9f9;fill-opacity:1"><g
             id="g118"
             style="fill:#f9f9f9;fill-opacity:1"><path
               d="M 1.4375,-10.796875 H 4.578125 V 0 H 1.4375 Z m 1.578125,-1.5 c -0.574219,0 -1.042969,-0.164063 -1.40625,-0.5 -0.367187,-0.332031 -0.546875,-0.75 -0.546875,-1.25 0,-0.488281 0.179688,-0.898437 0.546875,-1.234375 0.363281,-0.34375 0.832031,-0.515625 1.40625,-0.515625 0.570313,0 1.035156,0.164063 1.390625,0.484375 0.363281,0.324219 0.546875,0.726562 0.546875,1.203125 0,0.523437 -0.183594,0.953125 -0.546875,1.296875 -0.355469,0.34375 -0.820312,0.515625 -1.390625,0.515625 z m 0,0"
               id="path117"
               style="fill:#f9f9f9;fill-opacity:1" /></g></g></g><g
         fill="#0d4783"
         fill-opacity="1"
         id="g123"
         transform="matrix(0.9352469,0,0,0.9352469,35.849594,426.06669)"
         style="fill:#f9f9f9;fill-opacity:1"><g
           transform="translate(244.50898,61.56968)"
           id="g122"
           style="fill:#f9f9f9;fill-opacity:1"><g
             id="g121"
             style="fill:#f9f9f9;fill-opacity:1"><path
               d="M 5.078125,0.15625 C 4.179688,0.15625 3.300781,0.046875 2.4375,-0.171875 1.582031,-0.390625 0.90625,-0.664062 0.40625,-1 L 1.4375,-3.25 c 0.488281,0.3125 1.070312,0.570312 1.75,0.765625 0.6875,0.1875 1.359375,0.28125 2.015625,0.28125 1.320313,0 1.984375,-0.328125 1.984375,-0.984375 0,-0.3125 -0.183594,-0.53125 -0.546875,-0.65625 -0.367187,-0.132812 -0.921875,-0.25 -1.671875,-0.34375 -0.875,-0.132812 -1.605469,-0.289062 -2.1875,-0.46875 -0.574219,-0.175781 -1.074219,-0.484375 -1.5,-0.921875 -0.417969,-0.4375 -0.625,-1.066406 -0.625,-1.890625 0,-0.675781 0.195312,-1.28125 0.59375,-1.8125 0.394531,-0.53125 0.96875,-0.941406 1.71875,-1.234375 0.757812,-0.289063 1.65625,-0.4375 2.6875,-0.4375 0.757812,0 1.515625,0.08594 2.265625,0.25 0.757813,0.167969 1.390625,0.398437 1.890625,0.6875 L 8.765625,-7.78125 C 7.816406,-8.320312 6.78125,-8.59375 5.65625,-8.59375 c -0.667969,0 -1.167969,0.09375 -1.5,0.28125 -0.335938,0.1875 -0.5,0.433594 -0.5,0.734375 0,0.335937 0.175781,0.570313 0.53125,0.703125 0.363281,0.125 0.941406,0.25 1.734375,0.375 0.882813,0.148438 1.601563,0.304688 2.15625,0.46875 0.5625,0.167969 1.050781,0.476562 1.46875,0.921875 0.414063,0.4375 0.625,1.054687 0.625,1.84375 0,0.667969 -0.203125,1.261719 -0.609375,1.78125 -0.398438,0.523437 -0.980469,0.929687 -1.75,1.21875 C 7.039062,0.015625 6.128906,0.15625 5.078125,0.15625 Z m 0,0"
               id="path120"
               style="fill:#f9f9f9;fill-opacity:1" /></g></g></g><g
         fill="#0d4783"
         fill-opacity="1"
         id="g126"
         transform="matrix(0.9352469,0,0,0.9352469,35.849594,426.06669)"
         style="fill:#f9f9f9;fill-opacity:1"><g
           transform="translate(255.1635,61.56968)"
           id="g125"
           style="fill:#f9f9f9;fill-opacity:1"><g
             id="g124"
             style="fill:#f9f9f9;fill-opacity:1"><path
               d="m 8.40625,-0.515625 c -0.3125,0.21875 -0.695312,0.386719 -1.140625,0.5 C 6.816406,0.0976562 6.347656,0.15625 5.859375,0.15625 4.578125,0.15625 3.582031,-0.171875 2.875,-0.828125 2.175781,-1.484375 1.828125,-2.445312 1.828125,-3.71875 V -8.140625 H 0.15625 v -2.40625 H 1.828125 V -13.1875 h 3.125 v 2.640625 h 2.6875 v 2.40625 h -2.6875 V -3.75 c 0,0.460938 0.113281,0.8125 0.34375,1.0625 0.238281,0.242188 0.570313,0.359375 1,0.359375 0.5,0 0.921875,-0.132813 1.265625,-0.40625 z m 0,0"
               id="path123"
               style="fill:#f9f9f9;fill-opacity:1" /></g></g></g><g
         fill="#0d4783"
         fill-opacity="1"
         id="g129"
         transform="matrix(0.9352469,0,0,0.9352469,35.849594,426.06669)"
         style="fill:#f9f9f9;fill-opacity:1"><g
           transform="translate(263.89178,61.56968)"
           id="g128"
           style="fill:#f9f9f9;fill-opacity:1"><g
             id="g127"
             style="fill:#f9f9f9;fill-opacity:1"><path
               d="m 12.015625,-5.359375 c 0,0.042969 -0.02344,0.324219 -0.0625,0.84375 h -8.15625 c 0.144531,0.667969 0.488281,1.199219 1.03125,1.59375 0.550781,0.386719 1.234375,0.578125 2.046875,0.578125 0.5625,0 1.0625,-0.082031 1.5,-0.25 0.4375,-0.164062 0.84375,-0.429688 1.21875,-0.796875 l 1.65625,1.8125 C 10.238281,-0.421875 8.753906,0.15625 6.796875,0.15625 5.578125,0.15625 4.5,-0.078125 3.5625,-0.546875 2.632812,-1.023438 1.914062,-1.6875 1.40625,-2.53125 0.894531,-3.375 0.640625,-4.328125 0.640625,-5.390625 c 0,-1.0625 0.25,-2.015625 0.75,-2.859375 0.5,-0.851562 1.1875,-1.515625 2.0625,-1.984375 0.882813,-0.476563 1.867187,-0.71875 2.953125,-0.71875 1.050781,0 2.003906,0.230469 2.859375,0.6875 0.851563,0.449219 1.523437,1.101563 2.015625,1.953125 0.488281,0.84375 0.734375,1.828125 0.734375,2.953125 z M 6.421875,-8.59375 c -0.710937,0 -1.308594,0.203125 -1.796875,0.609375 -0.480469,0.398437 -0.773438,0.945313 -0.875,1.640625 h 5.3125 c -0.105469,-0.675781 -0.398438,-1.21875 -0.875,-1.625 -0.480469,-0.414062 -1.070312,-0.625 -1.765625,-0.625 z m 0,0"
               id="path126"
               style="fill:#f9f9f9;fill-opacity:1" /></g></g></g><g
         fill="#0d4783"
         fill-opacity="1"
         id="g132"
         transform="matrix(0.9352469,0,0,0.9352469,35.849594,426.06669)"
         style="fill:#f9f9f9;fill-opacity:1"><g
           transform="translate(276.55281,61.56968)"
           id="g131"
           style="fill:#f9f9f9;fill-opacity:1"><g
             id="g130"
             style="fill:#f9f9f9;fill-opacity:1"><path
               d="m 4.4375,-9.375 c 0.375,-0.519531 0.878906,-0.910156 1.515625,-1.171875 0.632813,-0.269531 1.363281,-0.40625 2.1875,-0.40625 V -8.0625 C 7.796875,-8.09375 7.5625,-8.109375 7.4375,-8.109375 c -0.898438,0 -1.601562,0.257813 -2.109375,0.765625 -0.5,0.5 -0.75,1.25 -0.75,2.25 V 0 H 1.4375 v -10.796875 h 3 z m 0,0"
               id="path129"
               style="fill:#f9f9f9;fill-opacity:1" /></g></g></g><g
         fill="#0d4783"
         fill-opacity="1"
         id="g135"
         transform="matrix(0.9352469,0,0,0.9352469,124.41917,423.70078)"
         style="fill:#f9f9f9;fill-opacity:1"><g
           transform="translate(99.727342,88.875182)"
           id="g134"
           style="fill:#f9f9f9;fill-opacity:1"><g
             id="g133"
             style="fill:#f9f9f9;fill-opacity:1"><path
               d="M 10.90625,-3.015625 H 4.390625 L 3.15625,0 H -0.1875 L 6.078125,-14.046875 H 9.28125 L 15.5625,0 h -3.40625 z m -1.015625,-2.46875 -2.234375,-5.375 -2.21875,5.375 z m 0,0"
               id="path132"
               style="fill:#f9f9f9;fill-opacity:1" /></g></g></g><g
         fill="#0d4783"
         fill-opacity="1"
         id="g138"
         transform="matrix(0.9352469,0,0,0.9352469,124.41917,423.70078)"
         style="fill:#f9f9f9;fill-opacity:1"><g
           transform="translate(115.09714,88.875182)"
           id="g137"
           style="fill:#f9f9f9;fill-opacity:1"><g
             id="g136"
             style="fill:#f9f9f9;fill-opacity:1"><path
               d="M 1.4375,-14.890625 H 4.578125 V 0 H 1.4375 Z m 0,0"
               id="path135"
               style="fill:#f9f9f9;fill-opacity:1" /></g></g></g><g
         fill="#0d4783"
         fill-opacity="1"
         id="g141"
         transform="matrix(0.9352469,0,0,0.9352469,124.41917,423.70078)"
         style="fill:#f9f9f9;fill-opacity:1"><g
           transform="translate(121.13671,88.875182)"
           id="g140"
           style="fill:#f9f9f9;fill-opacity:1"><g
             id="g139"
             style="fill:#f9f9f9;fill-opacity:1"><path
               d="m 7.828125,-10.953125 c 1,0 1.910156,0.234375 2.734375,0.703125 0.820312,0.460938 1.46875,1.105469 1.9375,1.9375 0.46875,0.835938 0.703125,1.808594 0.703125,2.921875 0,1.105469 -0.234375,2.078125 -0.703125,2.921875 -0.46875,0.835938 -1.117188,1.480469 -1.9375,1.9375 C 9.738281,-0.0703125 8.828125,0.15625 7.828125,0.15625 6.335938,0.15625 5.207031,-0.3125 4.4375,-1.25 V 0 h -3 v -14.890625 h 3.140625 v 5.234375 c 0.789063,-0.863281 1.875,-1.296875 3.25,-1.296875 z M 7.28125,-2.40625 c 0.800781,0 1.457031,-0.269531 1.96875,-0.8125 0.519531,-0.539062 0.78125,-1.265625 0.78125,-2.171875 0,-0.914063 -0.261719,-1.644531 -0.78125,-2.1875 -0.511719,-0.539063 -1.167969,-0.8125 -1.96875,-0.8125 -0.804688,0 -1.464844,0.273437 -1.984375,0.8125 -0.511719,0.542969 -0.765625,1.273437 -0.765625,2.1875 0,0.90625 0.253906,1.632813 0.765625,2.171875 0.519531,0.542969 1.179687,0.8125 1.984375,0.8125 z m 0,0"
               id="path138"
               style="fill:#f9f9f9;fill-opacity:1" /></g></g></g><g
         fill="#0d4783"
         fill-opacity="1"
         id="g144"
         transform="matrix(0.9352469,0,0,0.9352469,124.41917,423.70078)"
         style="fill:#f9f9f9;fill-opacity:1"><g
           transform="translate(134.98157,88.875182)"
           id="g143"
           style="fill:#f9f9f9;fill-opacity:1"><g
             id="g142"
             style="fill:#f9f9f9;fill-opacity:1"><path
               d="m 4.4375,-9.375 c 0.375,-0.519531 0.878906,-0.910156 1.515625,-1.171875 0.632813,-0.269531 1.363281,-0.40625 2.1875,-0.40625 V -8.0625 C 7.796875,-8.09375 7.5625,-8.109375 7.4375,-8.109375 c -0.898438,0 -1.601562,0.257813 -2.109375,0.765625 -0.5,0.5 -0.75,1.25 -0.75,2.25 V 0 H 1.4375 v -10.796875 h 3 z m 0,0"
               id="path141"
               style="fill:#f9f9f9;fill-opacity:1" /></g></g></g><g
         fill="#0d4783"
         fill-opacity="1"
         id="g147"
         transform="matrix(0.9352469,0,0,0.9352469,124.41917,423.70078)"
         style="fill:#f9f9f9;fill-opacity:1"><g
           transform="translate(143.6296,88.875182)"
           id="g146"
           style="fill:#f9f9f9;fill-opacity:1"><g
             id="g145"
             style="fill:#f9f9f9;fill-opacity:1"><path
               d="m 12.015625,-5.359375 c 0,0.042969 -0.02344,0.324219 -0.0625,0.84375 h -8.15625 c 0.144531,0.667969 0.488281,1.199219 1.03125,1.59375 0.550781,0.386719 1.234375,0.578125 2.046875,0.578125 0.5625,0 1.0625,-0.082031 1.5,-0.25 0.4375,-0.164062 0.84375,-0.429688 1.21875,-0.796875 l 1.65625,1.8125 C 10.238281,-0.421875 8.753906,0.15625 6.796875,0.15625 5.578125,0.15625 4.5,-0.078125 3.5625,-0.546875 2.632812,-1.023438 1.914062,-1.6875 1.40625,-2.53125 0.894531,-3.375 0.640625,-4.328125 0.640625,-5.390625 c 0,-1.0625 0.25,-2.015625 0.75,-2.859375 0.5,-0.851562 1.1875,-1.515625 2.0625,-1.984375 0.882813,-0.476563 1.867187,-0.71875 2.953125,-0.71875 1.050781,0 2.003906,0.230469 2.859375,0.6875 0.851563,0.449219 1.523437,1.101563 2.015625,1.953125 0.488281,0.84375 0.734375,1.828125 0.734375,2.953125 z M 6.421875,-8.59375 c -0.710937,0 -1.308594,0.203125 -1.796875,0.609375 -0.480469,0.398437 -0.773438,0.945313 -0.875,1.640625 h 5.3125 c -0.105469,-0.675781 -0.398438,-1.21875 -0.875,-1.625 -0.480469,-0.414062 -1.070312,-0.625 -1.765625,-0.625 z m 0,0"
               id="path144"
               style="fill:#f9f9f9;fill-opacity:1" /></g></g></g><g
         fill="#0d4783"
         fill-opacity="1"
         id="g150"
         transform="matrix(0.9352469,0,0,0.9352469,124.41917,423.70078)"
         style="fill:#f9f9f9;fill-opacity:1"><g
           transform="translate(156.29063,88.875182)"
           id="g149"
           style="fill:#f9f9f9;fill-opacity:1"><g
             id="g148"
             style="fill:#f9f9f9;fill-opacity:1"><path
               d="M 6.65625,0.15625 C 5.507812,0.15625 4.476562,-0.078125 3.5625,-0.546875 2.644531,-1.023438 1.925781,-1.6875 1.40625,-2.53125 0.894531,-3.375 0.640625,-4.328125 0.640625,-5.390625 c 0,-1.070313 0.253906,-2.03125 0.765625,-2.875 0.519531,-0.84375 1.238281,-1.5 2.15625,-1.96875 0.914062,-0.476563 1.945312,-0.71875 3.09375,-0.71875 1.132812,0 2.125,0.242187 2.96875,0.71875 0.851562,0.46875 1.476562,1.148437 1.875,2.03125 L 9.0625,-6.90625 C 8.5,-7.894531 7.691406,-8.390625 6.640625,-8.390625 c -0.8125,0 -1.492187,0.273437 -2.03125,0.8125 -0.53125,0.53125 -0.796875,1.261719 -0.796875,2.1875 0,0.917969 0.265625,1.648437 0.796875,2.1875 0.539063,0.53125 1.21875,0.796875 2.03125,0.796875 1.070313,0 1.878906,-0.492188 2.421875,-1.484375 L 11.5,-2.5625 c -0.398438,0.855469 -1.023438,1.523438 -1.875,2 -0.84375,0.4804688 -1.835938,0.71875 -2.96875,0.71875 z m 0,0"
               id="path147"
               style="fill:#f9f9f9;fill-opacity:1" /></g></g></g><g
         fill="#0d4783"
         fill-opacity="1"
         id="g153"
         transform="matrix(0.9352469,0,0,0.9352469,124.41917,423.70078)"
         style="fill:#f9f9f9;fill-opacity:1"><g
           transform="translate(168.14906,88.875182)"
           id="g152"
           style="fill:#f9f9f9;fill-opacity:1"><g
             id="g151"
             style="fill:#f9f9f9;fill-opacity:1"><path
               d="m 8,-10.953125 c 1.34375,0 2.425781,0.402344 3.25,1.203125 0.820312,0.804688 1.234375,1.996094 1.234375,3.578125 V 0 H 9.34375 v -5.703125 c 0,-0.851563 -0.1875,-1.488281 -0.5625,-1.90625 C 8.40625,-8.035156 7.863281,-8.25 7.15625,-8.25 6.375,-8.25 5.75,-8.003906 5.28125,-7.515625 4.8125,-7.023438 4.578125,-6.300781 4.578125,-5.34375 V 0 H 1.4375 v -14.890625 h 3.140625 v 5.21875 c 0.414063,-0.414063 0.914063,-0.734375 1.5,-0.953125 C 6.671875,-10.84375 7.3125,-10.953125 8,-10.953125 Z m 0,0"
               id="path150"
               style="fill:#f9f9f9;fill-opacity:1" /></g></g></g><g
         fill="#0d4783"
         fill-opacity="1"
         id="g156"
         transform="matrix(0.9352469,0,0,0.9352469,124.41917,423.70078)"
         style="fill:#f9f9f9;fill-opacity:1"><g
           transform="translate(182.01398,88.875182)"
           id="g155"
           style="fill:#f9f9f9;fill-opacity:1"><g
             id="g154"
             style="fill:#f9f9f9;fill-opacity:1"><path
               d="m 8.40625,-0.515625 c -0.3125,0.21875 -0.695312,0.386719 -1.140625,0.5 C 6.816406,0.0976562 6.347656,0.15625 5.859375,0.15625 4.578125,0.15625 3.582031,-0.171875 2.875,-0.828125 2.175781,-1.484375 1.828125,-2.445312 1.828125,-3.71875 V -8.140625 H 0.15625 v -2.40625 H 1.828125 V -13.1875 h 3.125 v 2.640625 h 2.6875 v 2.40625 h -2.6875 V -3.75 c 0,0.460938 0.113281,0.8125 0.34375,1.0625 0.238281,0.242188 0.570313,0.359375 1,0.359375 0.5,0 0.921875,-0.132813 1.265625,-0.40625 z m 0,0"
               id="path153"
               style="fill:#f9f9f9;fill-opacity:1" /></g></g></g><path
         style="fill:#f9f9f9;fill-opacity:1;stroke-width:1.1027"
         d="m 204.97795,344.97778 64.90287,38.17024 0.093,37.47258 11.15809,-6.4159 -11.99494,-7.15977 -0.0465,-2.6268 15.80069,9.51208 v 4.80746 l -65.25013,38.01486 -65.7766,-37.48019 -0.0232,-5.62554 26.07753,-15.06342 -23.15857,-4.44369 c -0.69037,-0.84379 -0.30136,-1.70402 0.23013,-2.12043 l 69.07002,12.3445 h 0.789 l 0.74853,0.11365 -3.11551,-3.33534 4.15042,1.47936 1.63556,-3.58335 1.5862,3.84635 3.41075,-1.93962 -1.51224,3.09024 4.13632,1.65435 -4.5308,1.37014 1.90672,2.23548 -2.62998,-0.46025 -2.41815,3.38514 -0.93508,-3.51663 -3.65213,1.98446 1.21939,-3.36522 -1.84098,-0.98624 -42.24418,-7.36396 -25.06862,14.81398 61.62007,35.68178 40.40673,-23.10567 -28.33689,-17.08582 1.23202,-0.39518 2.60356,0.41842 -1.85968,-2.30135 2.22534,-0.61275 26.5702,15.27023 0.0657,-33.33508 -61.76026,-36.40907 -0.37315,35.29133 28.52713,15.79633 -3.59979,-1.62727 2.58132,3.10521 -27.96892,-15.82778 -13.87318,8.6132 -2.98267,-0.36292 15.67236,-9.36802 0.26299,-37.41157 z"
         id="path156" /></g></g></svg>
